<?xml version="1.0" encoding="iso-8859-1"?>
<!-- Generator: Adobe Illustrator 19.0.0, SVG Export Plug-In . SVG Version: 6.00 Build 0)  -->
<svg version="1.1" id="Capa_1" xmlns="http://www.w3.org/2000/svg" xmlns:xlink="http://www.w3.org/1999/xlink" x="0px" y="0px"
	 viewBox="0 0 512 512" style="enable-background:new 0 0 512 512;" xml:space="preserve">
<polyline style="fill:#D6C8B0;" points="428.912,278.368 428.912,34.23 119.665,34.23 119.665,362.879 "/>
<polyline style="fill:#F9EED7;" points="401.111,252.061 401.111,7.923 91.866,7.923 91.866,336.572 "/>
<path style="fill:#FFD15C;" d="M452.248,471.713V286.577c0-19.704-15.973-35.677-35.677-35.677H257.757
	c-14.669,0-27.843-8.979-33.207-22.632l-7.03-17.897c-5.363-13.653-18.538-22.632-33.208-22.632H95.428
	c-19.704,0-35.677,15.973-35.677,35.677v248.297c0,17.875,14.49,32.364,32.364,32.364h327.771
	C437.759,504.077,452.248,489.587,452.248,471.713z"/>
<path style="fill:#EDBB4C;" d="M80.878,471.713V223.416c0-19.704,15.973-35.677,35.677-35.677H95.427
	c-19.704,0-35.677,15.973-35.677,35.677v248.297c0,17.875,14.49,32.363,32.364,32.363h21.128
	C95.368,504.077,80.878,489.587,80.878,471.713z"/>
<circle style="fill:#D6C8B0;" cx="170.548" cy="85.665" r="34.371"/>
<path style="fill:#FF525D;" d="M136.173,154.407c0-18.983,15.388-34.371,34.371-34.371s34.371,15.388,34.371,34.371"/>
<path d="M452.249,319.887c4.377,0,7.923-3.547,7.923-7.923v-25.387c0-16.728-9.476-31.28-23.337-38.588V34.23
	c0-4.376-3.546-7.923-7.923-7.923h-19.878V7.923c0-4.376-3.546-7.923-7.923-7.923H147.293c-4.376,0-7.923,3.547-7.923,7.923
	s3.547,7.923,7.923,7.923h245.895v227.13H257.757c-11.491,0-21.631-6.911-25.833-17.606l-7.03-17.896
	c-6.601-16.801-22.529-27.658-40.581-27.658H99.789V15.846h21.094c4.376,0,7.923-3.547,7.923-7.923S125.258,0,120.882,0H91.866
	c-4.376,0-7.923,3.547-7.923,7.923v173.439c-18.485,5.054-32.115,21.988-32.115,42.054v248.298C51.827,493.928,69.9,512,92.114,512
	h327.771c22.214,0,40.288-18.072,40.288-40.287V338.374c0-4.376-3.546-7.923-7.923-7.923c-4.377,0-7.923,3.547-7.923,7.923v133.339
	c0,13.477-10.965,24.44-24.441,24.44H92.114c-13.477,0-24.44-10.964-24.44-24.44V223.416c0-15.303,12.451-27.754,27.754-27.754
	h88.885c11.491,0,21.631,6.911,25.833,17.606l7.03,17.897c6.602,16.801,22.53,27.658,40.581,27.658h158.814
	c15.303,0,27.754,12.451,27.754,27.754v25.387C444.326,316.34,447.873,319.887,452.249,319.887z M409.035,242.976V42.153h11.953
	v201.046c-1.453-0.147-2.926-0.223-4.418-0.223H409.035z"/>
<path d="M212.837,85.667c0-23.322-18.972-42.294-42.294-42.294c-23.32,0-42.294,18.972-42.294,42.294
	c0,14.15,6.991,26.688,17.693,34.371c-10.702,7.681-17.693,20.221-17.693,34.371c0,4.376,3.547,7.923,7.923,7.923
	s7.923-3.547,7.923-7.923c0-14.583,11.864-26.447,26.447-26.447s26.447,11.865,26.447,26.447c0,4.376,3.547,7.923,7.923,7.923
	s7.923-3.547,7.923-7.923c0-14.15-6.991-26.689-17.693-34.371C205.846,112.355,212.837,99.816,212.837,85.667z M170.544,112.114
	c-14.583,0-26.447-11.864-26.447-26.447s11.864-26.447,26.447-26.447s26.447,11.865,26.447,26.447S185.126,112.114,170.544,112.114z
	"/>
<path d="M360.073,69.04c4.377,0,7.923-3.547,7.923-7.923s-3.546-7.923-7.923-7.923H343.25c-4.377,0-7.923,3.547-7.923,7.923
	s3.546,7.923,7.923,7.923H360.073z"/>
<path d="M250.087,69.04h66.753c4.377,0,7.923-3.547,7.923-7.923s-3.546-7.923-7.923-7.923h-66.753c-4.376,0-7.923,3.547-7.923,7.923
	S245.711,69.04,250.087,69.04z"/>
<path d="M250.087,224.198h109.985c4.377,0,7.923-3.547,7.923-7.923s-3.546-7.923-7.923-7.923H250.087
	c-4.376,0-7.923,3.547-7.923,7.923S245.711,224.198,250.087,224.198z"/>
<path d="M360.073,169.562h-56.437c-4.377,0-7.923,3.547-7.923,7.923s3.546,7.923,7.923,7.923h56.437
	c4.377,0,7.923-3.547,7.923-7.923S364.448,169.562,360.073,169.562z"/>
<path d="M250.087,185.408h27.137c4.377,0,7.923-3.547,7.923-7.923s-3.546-7.923-7.923-7.923h-27.137
	c-4.376,0-7.923,3.547-7.923,7.923S245.711,185.408,250.087,185.408z"/>
<path d="M250.087,107.829h109.985c4.377,0,7.923-3.547,7.923-7.923s-3.546-7.923-7.923-7.923H250.087
	c-4.376,0-7.923,3.547-7.923,7.923S245.711,107.829,250.087,107.829z"/>
<path d="M250.087,146.619h109.985c4.377,0,7.923-3.547,7.923-7.923s-3.546-7.923-7.923-7.923H250.087
	c-4.376,0-7.923,3.547-7.923,7.923S245.711,146.619,250.087,146.619z"/>
<g>
</g>
<g>
</g>
<g>
</g>
<g>
</g>
<g>
</g>
<g>
</g>
<g>
</g>
<g>
</g>
<g>
</g>
<g>
</g>
<g>
</g>
<g>
</g>
<g>
</g>
<g>
</g>
<g>
</g>
</svg>
