<svg id="Filled" height="512" viewBox="0 0 512 512" width="512" xmlns="http://www.w3.org/2000/svg"><path d="m56 296h240a32 32 0 0 1 32 32v160a0 0 0 0 1 0 0h-304a0 0 0 0 1 0 0v-160a32 32 0 0 1 32-32z" fill="#eba72e"/><path d="m264 296h32v112h-32z" fill="#a36f58"/><path d="m56 296h32v112h-32z" fill="#a36f58"/><path d="m392 200h32v288h-32z" fill="#d0d2d4"/><path d="m456 24v128h-32v-112a16 16 0 0 0 -16-16 16 16 0 0 0 -16 16v112h-32v-128h-8.969a16 16 0 0 0 -15.969 15l-7.062 113v16a32 32 0 0 0 32 32h96a32 32 0 0 0 32-32v-16l-7.062-113a16 16 0 0 0 -15.969-15z" fill="#c3c6c7"/><path d="m392 376h32v112h-32z" fill="#b6b9ba"/><path d="m56 408h240v80h-240z" fill="#a36f58"/><circle cx="72" cy="208" fill="#f0c6a4" r="32"/><circle cx="280" cy="208" fill="#f0c6a4" r="32"/><rect fill="#f7cca9" height="224" rx="104" width="208" x="72" y="80"/><path d="m128 456h96v32h-96z" fill="#d49073"/><path d="m280 136h-208l13.611-95.279c1.389-9.683 8.01-16.721 15.742-16.721h149.294c7.732 0 14.358 7.038 15.742 16.721z" fill="#d49073"/><path d="m280 136h-208l4.57-32h198.86z" fill="#d13330"/><path d="m72.985 136h206.03a32 32 0 0 1 31.045 24.239l1.94 7.761h-272l1.94-7.761a32 32 0 0 1 31.045-24.239z" fill="#d49073"/><path d="m252.18 279.17a32 32 0 0 0 -45.98-41.762 32 32 0 0 0 -60.394 0 32 32 0 0 0 -45.986 41.762 32 32 0 0 0 28.68 55.681 48 48 0 0 0 95.01 0 32 32 0 0 0 28.67-55.681z" fill="#95573a"/><path d="m488.922 38.5a24.043 24.043 0 0 0 -23.953-22.5h-8.969a8 8 0 0 0 -8 8v120h-16v-104a24 24 0 0 0 -48 0v104h-16v-120a8 8 0 0 0 -8-8h-8.969a24.043 24.043 0 0 0 -23.953 22.5l-7.062 113c-.011.166-.016.333-.016.5v16a40.045 40.045 0 0 0 40 40h24v280a8 8 0 0 0 8 8h32a8 8 0 0 0 8-8v-280h24a40.045 40.045 0 0 0 40-40v-16c0-.166 0-.333-.016-.5zm-72.922 441.5h-16v-96h16zm0-112h-16v-160h16zm64-200a24.028 24.028 0 0 1 -24 24h-96a24.028 24.028 0 0 1 -24-24v-15.75l7.047-112.75a8.014 8.014 0 0 1 7.984-7.5h.969v120a8 8 0 0 0 8 8h32a8 8 0 0 0 8-8v-112a8 8 0 0 1 16 0v112a8 8 0 0 0 8 8h32a8 8 0 0 0 8-8v-120h.969a8.014 8.014 0 0 1 7.984 7.5l7.047 112.75z"/><path d="m24 496h304a8 8 0 0 0 8-8v-160a40.045 40.045 0 0 0 -40-40h-27.326a39.815 39.815 0 0 0 -6.931-10.747 40.136 40.136 0 0 0 1.994-8.754l.547.428a112.489 112.489 0 0 0 12.949-20.927h2.767a39.986 39.986 0 0 0 23.972-72h8.028a8 8 0 0 0 7.761-9.94l-1.941-7.76a39.933 39.933 0 0 0 -30.765-29.484l-12.746-89.227c-1.954-13.668-11.909-23.589-23.662-23.589h-149.294c-11.753 0-21.708 9.921-23.661 23.589l-12.747 89.226a39.936 39.936 0 0 0 -30.766 29.485l-1.94 7.761a8 8 0 0 0 7.761 9.939h8.028a39.986 39.986 0 0 0 23.972 72h2.767a112.436 112.436 0 0 0 12.949 20.927l.547-.428a40.136 40.136 0 0 0 1.994 8.754 39.815 39.815 0 0 0 -6.931 10.747h-27.326a40.045 40.045 0 0 0 -40 40v160a8 8 0 0 0 8 8zm280-190.624a24.039 24.039 0 0 1 16 22.624v152h-16zm-88 174.624h-80v-16h80zm56-176h16v96h-16zm32-96a24.035 24.035 0 0 1 -20.535 23.747 112.267 112.267 0 0 0 4.535-31.747v-14.624a24.039 24.039 0 0 1 16 22.624zm-210.469-166.147c.789-5.526 4.225-9.853 7.822-9.853h149.294c3.6 0 7.033 4.327 7.822 9.853l7.736 54.147h-180.405zm-10.021 70.147h184.98l2.286 16h-189.552zm-35.51 96a24.039 24.039 0 0 1 16-22.624v14.624a112.267 112.267 0 0 0 4.535 31.747 24.036 24.036 0 0 1 -20.535-23.747zm2.356-48a23.961 23.961 0 0 1 22.629-16h206.031a23.964 23.964 0 0 1 22.628 16zm29.644 40v-24h192v24a95.046 95.046 0 0 1 -12.015 46.548 40.021 40.021 0 0 0 -50.192-19.948 40.067 40.067 0 0 0 -33.793-18.6v-8a8 8 0 0 0 -16 0v11.368a40.109 40.109 0 0 0 -17.793 15.232 40.021 40.021 0 0 0 -50.192 19.949 95.046 95.046 0 0 1 -12.015-46.549zm152 128a24.1 24.1 0 0 1 -6.376-.862 8 8 0 0 0 -10.038 6.581 40 40 0 0 1 -79.172 0 8 8 0 0 0 -10.038-6.581 24 24 0 0 1 -21.507-41.763 8 8 0 0 0 1.992-10 23.685 23.685 0 0 1 -2.861-11.375 24 24 0 0 1 37.346-19.948 8 8 0 0 0 12.006-4 24 24 0 0 1 45.3 0 8 8 0 0 0 12.006 4 24 24 0 0 1 34.485 31.32 8 8 0 0 0 1.992 10 24 24 0 0 1 -15.135 42.628zm24 7.978v64.022h-72v-16.592a56.392 56.392 0 0 0 45.684-39.475q1.157.067 2.316.067a39.788 39.788 0 0 0 24-8.022zm-88 47.43v16.592h-72v-64.022a39.788 39.788 0 0 0 24 8.022q1.159 0 2.316-.067a56.392 56.392 0 0 0 45.684 39.475zm-104-79.408h16v96h-16zm0 112h224v64h-56v-24a8 8 0 0 0 -8-8h-96a8 8 0 0 0 -8 8v24h-56zm-32-88a24.039 24.039 0 0 1 16-22.624v174.624h-16z"/><circle cx="216" cy="200" r="8"/><circle cx="136" cy="200" r="8"/><path d="m192 256h-32a8 8 0 0 0 0 16h32a8 8 0 0 0 0-16z"/></svg>