<svg id="Layer_1" enable-background="new 0 0 511.957 511.957" height="512" viewBox="0 0 511.957 511.957" width="512" xmlns="http://www.w3.org/2000/svg"><g><path d="m244.185 325.773h35.707v178.45h-35.707z" fill="#c57a3b"/><g><g><circle cx="262.039" cy="288.463" fill="#b8cb56" r="124.379"/><path d="m262.039 164.084c-6.809 0-13.488.556-20 1.608 59.183 9.568 104.379 60.887 104.379 122.771 0 61.883-45.196 113.203-104.379 122.771 6.512 1.053 13.191 1.609 20 1.609 68.693 0 124.379-55.687 124.379-124.379s-55.687-124.38-124.379-124.38z" fill="#a7bd39"/><g fill="#ff9626"><circle cx="208.719" cy="177.017" r="22.073"/><circle cx="144.042" cy="310.536" r="22.073"/><circle cx="239.966" cy="347.846" r="22.073"/><circle cx="305.15" cy="249.184" r="22.073"/><circle cx="364.345" cy="355.558" r="22.073"/></g></g><g><ellipse cx="377.662" cy="447.063" fill="#c57a3b" rx="26.717" ry="16.136" transform="matrix(.707 -.707 .707 .707 -205.507 397.989)"/><path d="m468.318 480.141c14.585 0 26.408-11.823 26.408-26.408 0-3.365-.636-6.579-1.783-9.538 6.761-2.621 11.558-9.183 11.558-16.87 0-9.992-8.1-18.092-18.092-18.092-1.675 0-3.294.232-4.833.658.426-1.539.658-3.159.658-4.833 0-9.992-8.1-18.092-18.091-18.092-5.306 0-10.078 2.284-13.387 5.922-4.836-6.126-12.323-10.064-20.734-10.064-14.585 0-26.408 11.823-26.408 26.408 0 .615.029 1.224.07 1.829-2.395-1.17-5.086-1.829-7.931-1.829-9.992 0-18.091 8.1-18.091 18.092 0 7.054 4.04 13.161 9.93 16.145-1.332 3.155-2.069 6.623-2.069 10.264 0 14.585 11.823 26.408 26.408 26.408z" fill="#ffebde"/><path d="m504.501 427.324c0-9.992-8.1-18.092-18.092-18.092-1.674 0-3.294.232-4.833.658.426-1.539.658-3.159.658-4.833 0-9.992-8.1-18.092-18.091-18.092-5.306 0-10.078 2.284-13.387 5.922-4.836-6.126-12.323-10.064-20.734-10.064-7.999 0-15.162 3.562-20.004 9.179.251.291.5.583.739.885 3.309-3.638 8.081-5.922 13.387-5.922 9.992 0 18.091 8.1 18.091 18.092 0 1.675-.232 3.294-.658 4.833 1.539-.426 3.159-.658 4.833-.658 9.992 0 18.092 8.1 18.092 18.092 0 7.687-4.797 14.25-11.558 16.87 1.147 2.959 1.783 6.173 1.783 9.538 0 14.585-11.823 26.408-26.408 26.408h40c14.585 0 26.408-11.823 26.408-26.408 0-3.365-.636-6.579-1.783-9.538 6.76-2.62 11.557-9.183 11.557-16.87z" fill="#f7dfd0"/></g></g><g><path d="m261.801 125.21c-4.142 0-7.5 3.358-7.5 7.5v.5c.344 9.931 14.659 9.923 15 0v-.5c0-4.142-3.358-7.5-7.5-7.5z"/><path d="m269.301 101.073c-.344-9.931-14.659-9.923-15 0v1.021c.344 9.931 14.659 9.923 15 0z"/><path d="m269.301 69.957c-.344-9.931-14.659-9.923-15 0v.5c.344 9.931 14.659 9.923 15 0z"/><path d="m504.501 496.957h-37.569v-9.316c21.118.297 38.53-18.489 34.784-39.785 18.434-13.663 10.538-43.153-12.172-45.932-2.191-17.865-22.559-28.019-38.171-19.038-19.232-15.955-49.298-5.158-54.429 18.874-12.609-.577-24.157 8.607-26.377 21.063-17.785 10.001-29.95 35.893-17.099 48.435 8.087 7.822 20.105 6.222 29.965.813 6.573 10.179 18.158 15.805 30.146 15.57v9.316h-27.785c-4.142 0-7.5 3.358-7.5 7.5s3.358 7.5 7.5 7.5h118.708c9.888-.325 9.96-14.647-.001-15zm-140.428-36.306c-5.344-5.344 5.584-18.094 9.118-21.225 1.424 2.657 3.312 5.056 5.604 7.074-.8 3.711-.978 7.437-.535 11.177-6.478 4.275-12.369 4.791-14.187 2.974zm28.949-6.919c0-2.551.498-5.023 1.479-7.347 1.532-3.63-.005-7.827-3.52-9.607-3.364-1.704-5.509-4.999-5.768-8.709.579-7.405 7.327-14.102 15.179-10.269 5.372 2.626 11.134-2.002 10.774-7.252-.968-18.308 22.131-27.597 33.702-13.013 3.688 3.665 7.5 3.798 11.435.4 6.987-7.681 20.926-.45 18.044 9.956-1.527 5.52 3.709 10.755 9.229 9.229 12.916-3.057 19.043 14.854 6.656 20.082-3.862 1.497-5.779 5.842-4.282 9.704 4.687 12.088-4.653 25.735-17.632 25.735h-56.388c-10.426 0-18.908-8.482-18.908-18.909zm35.556 33.909h23.354v9.316h-23.354z"/><path d="m342.225 496.957h-54.833v-79.029c24.945-4.807 47.834-16.714 66.404-34.75 29.752 10.945 53.481-25.545 31.697-48.264 37.163-97.318-51.211-198.659-152.71-175.056-19.402-26.554-60.682-6.784-52.527 25.159-6.935 5.491-13.328 11.663-19.038 18.428-6.176 7.317 5.088 17.229 11.463 9.675 4.623-5.477 9.744-10.524 15.281-15.067 19.512 19.339 52.676 3.371 50.181-24.019 88.246-18.876 164.465 68.125 134.233 153.066-27.829-7.689-48.998 24.869-30.94 47.131-57.16 53.952-153.012 34.837-185.478-36.64 28.234-12.751 20.69-54.739-10.536-56.595.67-10.609 2.736-21.012 6.217-31.01 3.188-9.158-10.977-14.09-14.166-4.933-4.406 12.654-6.832 25.87-7.243 39.343-25.416 13.563-18.407 51.916 10.338 55.5 16.421 39.68 53.897 70.124 96.118 78.013v79.047h-75.386v-13.531l15.409-15.408c2.929-2.929 2.929-7.677 0-10.606-2.928-2.929-7.677-2.929-10.606 0l-4.802 4.802v-9.268l15.409-15.408c2.929-2.929 2.929-7.677 0-10.606-2.928-2.929-7.677-2.929-10.606 0l-4.802 4.802v-17.606c0-4.142-3.358-7.5-7.5-7.5s-7.5 3.358-7.5 7.5v17.605l-4.802-4.802c-2.929-2.929-7.678-2.929-10.606 0-2.929 2.929-2.929 7.678 0 10.606l15.408 15.408v9.268l-4.802-4.802c-2.929-2.929-7.678-2.929-10.606 0-2.929 2.929-2.929 7.678 0 10.606l15.408 15.408v13.531h-49.349v-13.531l15.408-15.408c2.929-2.929 2.929-7.678 0-10.606-2.929-2.929-7.678-2.929-10.606 0l-4.802 4.802v-9.268l15.408-15.408c2.929-2.929 2.929-7.678 0-10.606-2.929-2.929-7.678-2.929-10.606 0l-4.802 4.802v-9.268l15.408-15.408c2.929-2.929 2.929-7.678 0-10.606-2.929-2.929-7.678-2.929-10.606 0l-4.802 4.802v-16.239c0-4.142-3.358-7.5-7.5-7.5s-7.5 3.358-7.5 7.5v16.239l-4.802-4.802c-2.929-2.929-7.678-2.929-10.606 0-2.929 2.929-2.929 7.678 0 10.606l15.408 15.408v9.268l-4.802-4.802c-2.929-2.929-7.678-2.929-10.606 0-2.929 2.929-2.929 7.678 0 10.606l15.408 15.408v9.268l-4.802-4.802c-2.929-2.929-7.678-2.929-10.606 0-2.929 2.929-2.929 7.678 0 10.606l15.408 15.408v13.531h-49.347v-13.531l15.408-15.408c2.929-2.929 2.929-7.678 0-10.606-2.929-2.929-7.678-2.929-10.606 0l-4.802 4.802v-9.268l15.408-15.408c2.929-2.929 2.929-7.678 0-10.606-2.929-2.929-7.678-2.929-10.606 0l-4.802 4.802v-9.268l15.408-15.408c2.929-2.929 2.929-7.678 0-10.606-2.929-2.929-7.678-2.929-10.606 0l-4.802 4.802v-8.352l15.408-15.409c2.929-2.929 2.929-7.678 0-10.606-2.929-2.93-7.678-2.929-10.606 0l-4.802 4.802v-18.674c0-4.142-3.358-7.5-7.5-7.5s-7.5 3.358-7.5 7.5v18.674l-4.802-4.802c-2.929-2.93-7.678-2.929-10.606 0-2.929 2.929-2.929 7.677 0 10.606l15.408 15.409v8.352l-4.802-4.802c-2.929-2.929-7.678-2.929-10.606 0-2.929 2.929-2.929 7.678 0 10.606l15.408 15.408v9.268l-4.802-4.802c-2.929-2.929-7.678-2.929-10.606 0-2.929 2.929-2.929 7.678 0 10.606l15.408 15.408v9.268l-4.802-4.802c-2.929-2.929-7.678-2.929-10.606 0-2.929 2.929-2.929 7.678 0 10.606l15.408 15.408v13.531h-10.105c-4.142 0-7.5 3.358-7.5 7.5s3.358 7.5 7.5 7.5h334.724c9.798-.301 10.062-14.587 0-14.998zm-133.506-305.367c-8.036 0-14.573-6.537-14.573-14.573.8-19.333 28.348-19.327 29.146 0 0 8.036-6.537 14.573-14.573 14.573zm-79.25 118.946c0-8.036 6.537-14.573 14.573-14.573 19.333.8 19.327 28.348 0 29.146-8.036-.001-14.573-6.538-14.573-14.573zm234.876 30.449c8.036 0 14.573 6.537 14.573 14.573-.8 19.333-28.348 19.327-29.146 0 0-8.036 6.538-14.573 14.573-14.573zm-102.306 79.357c3.476 0 6.929-.134 10.354-.396v76.777h-20.707v-76.783c3.429.265 6.881.402 10.353.402z"/><path d="m269.539 347.846c0-16.307-13.266-29.573-29.573-29.573-39.231 1.624-39.22 57.527 0 59.145 16.306 0 29.573-13.266 29.573-29.572zm-44.145 0c0-8.036 6.537-14.573 14.572-14.573 19.333.8 19.327 28.348 0 29.145-8.035 0-14.572-6.537-14.572-14.572z"/><path d="m334.723 249.184c0-16.307-13.266-29.573-29.573-29.573-39.232 1.624-39.221 57.527 0 59.146 16.307-.001 29.573-13.267 29.573-29.573zm-44.145 0c0-8.036 6.537-14.573 14.573-14.573 19.333.8 19.327 28.348 0 29.146-8.036-.001-14.573-6.538-14.573-14.573z"/><path d="m440.565 346.957c-4.142 0-7.5 3.358-7.5 7.5v.5c.344 9.931 14.659 9.923 15 0v-.5c0-4.142-3.357-7.5-7.5-7.5z"/><path d="m448.065 164.443c-.344-9.931-14.659-9.923-15 0v1.021c.344 9.931 14.659 9.923 15 0z"/><path d="m448.065 196.112c-.344-9.931-14.659-9.923-15 0v1.021c.344 9.931 14.659 9.923 15 0z"/><path d="m448.065 101.104c-.344-9.931-14.659-9.923-15 0v1.021c.344 9.931 14.659 9.923 15 0z"/><path d="m448.065 132.773c-.344-9.931-14.659-9.923-15 0v1.022c.344 9.931 14.659 9.923 15 0z"/><path d="m448.065 227.781c-.344-9.931-14.659-9.923-15 0v1.021c.344 9.931 14.659 9.923 15 0z"/><path d="m448.065 291.119c-.344-9.931-14.659-9.923-15 0v1.021c.344 9.931 14.659 9.923 15 0z"/><path d="m448.065 259.45c-.344-9.931-14.659-9.923-15 0v1.022c.344 9.931 14.659 9.923 15 0z"/><path d="m448.065 322.788c-.344-9.931-14.659-9.923-15 0v1.021c.344 9.931 14.659 9.923 15 0z"/><path d="m448.065 69.957c-.344-9.931-14.659-9.923-15 0v.5c.344 9.931 14.659 9.923 15 0z"/><path d="m89.497 346.957c-4.142 0-7.5 3.358-7.5 7.5v.5c.344 9.931 14.659 9.923 15 0v-.5c0-4.142-3.358-7.5-7.5-7.5z"/><path d="m96.997 291.119c-.344-9.931-14.659-9.923-15 0v1.021c.344 9.931 14.659 9.923 15 0z"/><path d="m96.997 227.781c-.344-9.931-14.659-9.923-15 0v1.021c.344 9.931 14.659 9.923 15 0z"/><path d="m96.997 259.45c-.344-9.931-14.659-9.923-15 0v1.022c.344 9.931 14.659 9.923 15 0z"/><path d="m96.997 101.104c-.344-9.931-14.659-9.923-15 0v1.021c.344 9.931 14.659 9.923 15 0z"/><path d="m96.997 132.773c-.344-9.931-14.659-9.923-15 0v1.022c.344 9.931 14.659 9.923 15 0z"/><path d="m96.997 164.443c-.344-9.931-14.659-9.923-15 0v1.021c.344 9.931 14.659 9.923 15 0z"/><path d="m96.997 196.112c-.344-9.931-14.659-9.923-15 0v1.021c.344 9.931 14.659 9.923 15 0z"/><path d="m96.997 322.788c-.344-9.931-14.659-9.923-15 0v1.021c.344 9.931 14.659 9.923 15 0z"/><path d="m96.997 69.957c-.344-9.931-14.659-9.923-15 0v.5c.344 9.931 14.659 9.923 15 0z"/><path d="m109.803 52.974c6.296 0 9.756-8.351 5.303-12.803-14.168-14.168-37.223-14.169-51.393 0-6.858 6.857 3.75 17.463 10.606 10.606 8.321-8.32 21.859-8.32 30.18 0 1.465 1.464 3.384 2.197 5.304 2.197z"/><path d="m55.403 29.056c17.922-18.674 50.09-18.674 68.012 0 6.856 6.858 17.464-3.75 10.606-10.606-23.505-24.494-65.721-24.493-89.225 0-6.857 6.856 3.751 17.463 10.607 10.606z"/><path d="m282.432 52.974c6.296 0 9.756-8.351 5.303-12.803-14.169-14.169-37.225-14.169-51.393 0-6.858 6.857 3.75 17.463 10.606 10.606 8.321-8.32 21.859-8.32 30.18 0 1.465 1.464 3.385 2.197 5.304 2.197z"/><path d="m228.033 29.056c17.922-18.675 50.09-18.674 68.012 0 6.856 6.858 17.464-3.75 10.606-10.606-23.505-24.494-65.72-24.493-89.225 0-6.857 6.856 3.75 17.463 10.607 10.606z"/><path d="m460.959 52.974c6.296 0 9.756-8.351 5.303-12.803-14.169-14.169-37.224-14.169-51.393 0-6.858 6.857 3.75 17.463 10.606 10.606 8.32-8.32 21.859-8.32 30.18 0 1.465 1.464 3.384 2.197 5.304 2.197z"/><path d="m406.559 29.056c18.751-18.751 49.262-18.751 68.013 0 6.857 6.857 17.464-3.75 10.606-10.606-24.6-24.6-64.626-24.6-89.226 0-6.857 6.856 3.75 17.463 10.607 10.606z"/></g></g></svg>